<?xml version="1.0" encoding="utf-8"?>
<!-- Generator: Adobe Illustrator 23.1.0, SVG Export Plug-In . SVG Version: 6.00 Build 0)  -->
<svg version="1.1" id="Capa_1" xmlns="http://www.w3.org/2000/svg" xmlns:xlink="http://www.w3.org/1999/xlink" x="0px" y="0px"
	 viewBox="0 0 1200 1200" enable-background="new 0 0 1200 1200" xml:space="preserve">
<g>
	<path fill="#D14970" d="M1136.458,707.751c-15.142-18.426-39.492-27.122-62.84-22.188c3.407-5.002,5.75-10.862,6.541-16.838
		c1.483-11.2-0.391-22.845-5.446-32.946c-0.687-1.372-9.168-16.625-9.318-16.491c-9.095,8.196-25.487,26.574-29.312,39.301
		c-4-8.326-9.299-15.466-14.864-22.132c0,0-6.919-8.289-6.919-8.289c-7.09,12.373-13.374,25.107-19.067,38.18V367.477
		c0-67.873,14.777-112.542,43.921-132.765c7.375-5.118,10.57-14.432,7.889-22.999c-2.681-8.567-10.617-14.398-19.593-14.398H883.2
		c-8.155,0-15.537,4.827-18.807,12.298c0,0-157.432,359.666-157.432,359.666c0.315-20.133-16.371-38.02-35.468-42.262
		c-7.854-1.745-16.163-1.237-23.667,1.402c3.377-10.187,5.606-20.982,6.044-32.404c1.041-27.099-11.847-54.115-37.236-65.712
		c-15.129-6.911-32.632-8.293-48.622-3.674c-22.444,6.483-38.192,24.888-42.183,47.659c-3.773,21.524,5.801,44.704,25.282,55.339
		c19.197,10.48,45.152,5.094,53.449-16.688c3.515-9.228,2.799-20.813-4.2-28.483c-5.121-5.613-13.784-9.087-21.304-6.575
		c-6.57,2.192-10.118,9.295-7.926,15.864c2.192,6.569,9.295,10.118,15.864,7.926c3.299-1.101,5.824-3.442,7.245-6.331
		c3.524,28.088-39.523,29.413-47.658,4.463c-4.358-13.367-1.311-30.357,8.551-40.466c15.857-16.252,43.875-15.765,60.998-1.827
		c12.113,9.86,18.089,24.683,19.447,39.948c2.19,24.621-19.271,67.03-34.215,80.773c-34.064,4.138-63.535,31.953-66.252,61.812
		l-19.306-39.154c2.121-0.953,18.347-8.723,23.203-25.816c4.774-16.805-4.166-32.898-13.557-46.22
		c-12.792,7.148-25.368,17.527-29.226,32.325L322.459,208.765c-3.457-7.011-10.596-11.451-18.414-11.451H169.484
		c-8.975,0-16.91,5.831-19.592,14.396c-2.682,8.565,0.511,17.88,7.884,22.999c29.147,20.236,43.926,64.905,43.926,132.768V659.51
		c-3.304-7.255-6.717-14.429-10.381-21.589c0,0-5.59-9.754-5.59-9.754c-8.012,9.599-16.316,19.048-21.777,30.41
		c-5.436-18.924-14.835-26.405-23.301-33.937l-6.016-5.353c-2.738,4.003-5.524,7.924-7.672,12.282
		c-5.501,11.164-8.928,24.553-7.092,37.155c0.791,5.976,3.134,11.835,6.541,16.838c-10.048-2.123-20.856-2.04-30.973,1.047
		C70.683,694.164,50.048,717.026,50,743.854c-0.023,12.986,4.664,26.986,14.466,36.068c9.578,9.086,23.475,12.205,36.273,9.936
		c0.069-0.012,0.135-0.033,0.204-0.045c-9.532,9.548-16.2,21.726-18.822,34.877c-2.775,13.922-0.098,28.647,7.591,40.602
		c11.139,17.318,33.76,29.177,54.367,25.07c5.381-1.073,8.193-8.272,6.603-13.038c-1.762-5.28-7.47-8.132-12.75-6.37
		c-5.246,1.75-7.933,7.57-6.357,12.615c-6.088-0.783-12.096-4.623-15.057-9.005c-8.633-12.586-6.134-32.074,5.096-42.341
		c10.023-9.163,26.402-9.533,37.868-3.035c18.57,10.523,29.559,33.125,33.715,53.309c2.948,14.32,2.862,29.927-0.626,44.144
		c-7.224,14.705-18.752,27.519-34.791,38.647c-7.375,5.117-10.571,14.432-7.89,22.999c2.681,8.567,10.616,14.399,19.593,14.399
		h175.468c8.888,0,16.767-5.719,19.52-14.17c2.753-8.451-0.244-17.714-7.426-22.95c-29.093-21.209-43.235-47.473-43.235-80.294
		v-333.78l219.459,439.831c3.475,6.964,10.588,11.364,18.37,11.364h73.201c8.031,0,15.325-4.683,18.668-11.986l199.784-436.465
		v337.233c-3.905,28.404-19.874,52.692-48.784,74.221c-7.098,5.286-10.01,14.525-7.225,22.925
		c2.784,8.401,10.638,14.071,19.488,14.071h220.679c8.977,0,16.914-5.833,19.594-14.401s-0.518-17.884-7.895-23
		c-11.798-8.181-21.134-17.285-28.143-27.373c-6.801-17.43-8.117-37.144-4.173-55.415c4.285-19.849,15.173-42.802,33.715-53.309
		c16.458-9.52,39.413-3.047,45.863,15.424c5.638,16.146-5.526,34.781-17.943,39.093c1.762-5.28-1.09-10.988-6.37-12.75
		c-5.28-1.762-10.988,1.09-12.75,6.37c-4.647,13.926,10.676,19.288,24.335,14.9c12.8-4.112,24.651-11.329,33.44-21.897
		c10.653-12.809,14.023-29.443,10.786-45.637c-2.708-13.549-9.634-24.965-18.905-35.002c6.045,1.608,13.01,1.124,19.013-0.354
		c13.494-3.32,23.539-13.333,28.515-26.099C1153.881,744.387,1149.094,723.127,1136.458,707.751z M505.63,566.397
		c1.544-11.102,11.251-19.641,16.841-23.71c6.837,11.034,9.086,20.939,6.686,29.497c-2.603,9.285-10.226,15.074-14.551,17.706
		C507.59,581.903,504.571,574.013,505.63,566.397z M1048.594,662.738c1.291-4.216,3.65-12.489,13.418-22.092
		c4.139,8.278,6.223,18.051,5.598,26.607c-0.762,10.419-5.487,18.665-13.545,24.553
		C1046.78,684.025,1046.283,670.283,1048.594,662.738z M1045.295,698.313c-3.639,2.558-7.081,5.438-10.39,8.38
		c2.242-5.408,4.362-10.838,5.519-16.597C1040.283,690.812,1045.304,698.307,1045.295,698.313z M1016.941,655.051
		c2.592,3.291,4.942,6.678,6.844,10.193c7.891,14.584,3.653,28.571-1.836,43.204c-2.527,6.625-4.974,13.605-6.69,20.832
		c-0.573-2.164-1.324-4.301-2.28-6.344c-3.215-6.871-6.921-15.98-8.336-23.433C1003.245,692.139,1003.401,670.945,1016.941,655.051z
		 M1004.892,746.692c-3.32,6.337-7.031,14.308-9.658,20.959v-55.337C1000.918,725.582,1006.598,735.992,1004.892,746.692z
		 M696.063,594.174l-18.46,42.173c-0.367-17.224-4.953-27.502-11.716-35.932C672.538,604.201,691.606,598.465,696.063,594.174z
		 M632.806,691.21c7.259,10.501,10.008,20.127,8.225,28.69l-4.224,9.65c-3.034,4.348-6.874,7.419-9.49,9.196
		c-7.408-7.624-10.819-15.353-10.145-23.011C618.157,704.568,627.425,695.553,632.806,691.21z M649.356,700.882
		c-2.029-5.805-5.298-11.768-9.807-17.866c6.125-0.76,12.055-3.061,16.956-6.536c2.011-1.369,3.832-2.94,5.547-4.603
		L649.356,700.882z M637.59,551.946c4.701-8.829,21.425-10.263,29.963-8.357c16.472,3.678,29.703,21.191,21.439,35.963
		c-2.303,4.116-8.169,7.851-13.002,9.032c3.094-3.253,4.379-8.027,2.859-12.583c-2.192-6.569-9.295-10.118-15.864-7.926
		c-8.944,2.984-12.238,13.298-8.177,21.663c-5.386-4.722-19.956-11.676-33.447-12.371
		C628.56,569.122,635.795,555.318,637.59,551.946z M552.937,647.118c3.016-26.799,26.211-45.869,51.644-50.828
		c16.522-3.221,34.804,0.976,46.631,13.574c11.347,12.087,13.289,31.162,4.413,45.358c-6.368,10.185-17.962,16.281-30.151,13.506
		c-11.249-2.634-16.202-12.683-11.975-22.357c2.192,6.569,9.295,10.118,15.864,7.926c6.569-2.192,10.118-9.294,7.926-15.864
		c-4.411-13.221-22.174-10.825-29.507-3c-15.802,16.862-5.712,44.206,19.142,47.252c-9.555,8.256-19.139,18.776-19.971,32.092
		c-0.56,6.223,0.672,12.331,3.641,18.281c-14.212-12.293-30.667-22.504-42.737-37.098
		C556.882,682.687,550.997,664.351,552.937,647.118z M619.951,767.801l-10.211,23.588c0,0-30.106-61.056-30.106-61.056
		C586.677,735.618,611.258,751.41,619.951,767.801z M198.34,728.42c1.297-2.415,2.339-4.941,3.361-7.463v39.253
		c-1.783-4.071-3.699-8.099-5.776-12.063C195.182,743.491,194.529,735.516,198.34,728.42z M176.346,665.296
		c1.905-3.63,4.236-7.06,6.743-10.242c1.754,4.219,7.972,15.687,8.845,17.507c7.591,15.828,2.157,35.333-4.882,50.377
		c-0.955,2.042-1.707,4.179-2.28,6.343c-1.716-7.227-4.162-14.207-6.689-20.832C172.575,693.767,168.676,679.913,176.346,665.296z
		 M159.607,690.094c1.217,6.06,3.343,11.526,5.565,16.685c-0.601-1.394-10.502-8.384-10.435-8.467
		C156.78,695.78,158.609,692.201,159.607,690.094z M143.874,648.64c8.741,11.715,12.416,29.629,3.313,42.342
		c-0.101,0.141-8.88-8.683-9.59-9.646c-3.069-4.159-4.855-8.897-5.175-14.081c-0.536-8.702,2.303-17.014,5.762-24.862
		C140.346,644.071,142.207,646.404,143.874,648.64z M99.494,777.629c-13.664,0.061-25.926-7.779-28.235-21.803
		c-1.911-11.606,2.204-24.566,9.812-33.43c19.215-22.39,52.063-19.255,72.232-0.788c42.673,39.073,48.399,85.455,48.399,85.455
		c-5.683-10.95-16.242-21.697-23.222-26.149c-14.819-9.453-35.359-12.368-48.521-9.885c3.04-6.263,6.066-17.125,3.974-24.09
		c-1.85-6.159-8.274-10.849-15.165-8.549c-5.28,1.762-8.132,7.47-6.37,12.75c2.32,6.954,11.874,9.017,16.875,3.676
		C125.736,768.708,113.705,777.566,99.494,777.629z M194.713,844.208c-10.874-26.592-39.82-50.182-69.053-35.049
		c-12.386,6.412-21.204,18.63-24.022,32.221c-1.808,8.461-1.659,17.655,1.334,25.83c-7.441-11.445-9.627-25.935-6.04-39.111
		c6.285-23.088,30.573-41.196,54.806-36.99c15.605,2.708,29.116,12.776,37.406,26.256c7.858,12.777,10.599,31.646,10.395,41.971
		C198.321,854.233,196.743,849.172,194.713,844.208z M1097.399,866.66c4.68-19.387,0.916-32.983-7.374-44.44
		c-8.801-12.163-24.145-18.978-39.065-17.588c-21.723,2.1-43.337,24.884-50.469,54.704c-0.319-21.997,10.199-40.613,17.895-50.19
		c15.438-19.209,43.799-25.809,64.486-11.542C1104.479,812.504,1115.407,844.044,1097.399,866.66z M1128.406,757.212
		c-3.192,13.163-14.587,20.495-27.868,20.415c-9.618-0.058-18.473-3.628-24.343-11.415c-2.305-3.112-2.47-6.249-2.014-8.841
		c5.215,2.483,11.693-0.95,13.455-6.23c1.762-5.28-0.995-11.306-6.371-12.75c-12.548-3.371-16.521,11.53-15.776,19.725
		c0.477,5.247,2.732,10.927,7.044,15.373c-17.175-5.286-35.915-2.187-50.98,7.426c-9.909,6.322-18.162,16.122-23.5,26.667
		c3.196-13.47,7.599-26.6,13.515-38.949c8.57-17.89,20.924-35.085,36.609-47.604c21.012-16.771,51.769-20.79,70.785,1.367
		C1127.061,731.835,1131.421,744.778,1128.406,757.212z"/>
	<path fill="#F9B1B0" d="M1027.45,996.271c6.205,0,11.618-3.98,13.47-9.902c1.852-5.922-0.328-12.275-5.428-15.811
		c-31.407-21.781-46.674-49.679-46.674-85.286V367.476c0-70.099,15.706-116.542,46.677-138.035c5.1-3.539,7.278-9.892,5.426-15.811
		c-1.854-5.922-7.268-9.899-13.47-9.899H883.2c-5.606,0-10.684,3.318-12.932,8.456L615.616,793.964
		c-1,2.286-3.235,3.784-5.732,3.839c-2.453,0.155-4.794-1.336-5.899-3.576L316.704,211.602c-2.395-4.854-7.244-7.872-12.658-7.872
		H169.484c-6.204,0-11.617,3.977-13.47,9.897c-1.853,5.919,0.326,12.273,5.421,15.811c30.977,21.508,46.683,67.951,46.683,138.037
		v517.796c0,35.595-15.269,63.493-46.679,85.286c-5.097,3.539-7.278,9.892-5.426,15.814c1.853,5.919,7.268,9.899,13.472,9.899
		h175.468c6.127,0,11.521-3.917,13.42-9.744c1.898-5.827-0.154-12.167-5.106-15.776c-30.867-22.503-45.871-50.463-45.871-85.479
		V551.491c0-2.977,2.048-5.561,4.945-6.245c2.897-0.684,5.884,0.717,7.211,3.381l219.458,439.83
		c2.405,4.819,7.245,7.814,12.631,7.814h73.201c5.506,0,10.543-3.235,12.834-8.243l199.783-436.462
		c1.063-2.318,3.366-3.747,5.832-3.747c0.454,0,0.912,0.048,1.368,0.148c2.947,0.642,5.05,3.25,5.05,6.268v337.232
		c0,0.293-0.02,0.584-0.06,0.875c-4.15,30.199-20.934,55.877-51.308,78.492c-4.887,3.641-6.884,9.977-4.967,15.764
		c1.917,5.787,7.303,9.674,13.398,9.674H1027.45z"/>
	<path fill="#FFDEDC" d="M1031.107,976.881c-33.637-23.325-49.987-53.29-49.987-91.611V367.477
		c0-72.773,16.819-121.344,49.987-144.363c2.306-1.599,3.303-4.509,2.466-7.188c-0.837-2.677-3.318-4.499-6.123-4.499h-144.25
		c-2.549,0-4.854,1.509-5.877,3.842L610.502,824.847L309.799,215.006c-1.08-2.19-3.311-3.579-5.754-3.579H169.484
		c-2.804,0-5.285,1.822-6.122,4.499c-0.837,2.677,0.16,5.589,2.464,7.188c33.174,23.031,49.992,71.603,49.992,144.363V885.27
		c0,38.309-16.352,68.274-49.99,91.614c-2.306,1.599-3.303,4.509-2.466,7.188c0.837,2.677,3.318,4.499,6.122,4.499h175.469
		c2.777,0,5.24-1.787,6.1-4.428c0.86-2.641-0.075-5.536-2.321-7.173c-32.996-24.051-49.035-54.047-49.035-91.699V491.59
		l246.202,493.429c1.088,2.175,3.311,3.551,5.742,3.551h73.201c2.509,0,4.789-1.464,5.834-3.747l226.732-495.336V892.4
		c-4.158,32.327-22.482,60.791-54.468,84.609c-2.218,1.652-3.128,4.539-2.258,7.163c0.87,2.626,3.323,4.398,6.09,4.398h220.679
		c2.804,0,5.286-1.822,6.123-4.501C1034.41,981.392,1033.413,978.48,1031.107,976.881z M1008.893,975.739H987.65
		c-0.472-0.346-0.94-0.701-1.387-1.082c0.239-3.401,0.391-6.819,0.44-10.256c1.597-2.511,3.121-5.058,4.671-7.592
		C996.402,963.499,1002.238,969.814,1008.893,975.739z M447.088,758.243c7.871-19.554,24.701-44.326,37.673-62.133
		c-1.762,21.761-13.849,70.166-25.905,85.717L447.088,758.243z M228.645,885.402c0-0.044,0.003-0.088,0.003-0.132v-15.574
		c19.441-19.441,41.828-41.828,58.217-58.217v15.705C270.031,844.018,247.115,866.932,228.645,885.402z M323.001,270.793
		c-15.668,20.334,6.023,43.546,16.086,74.795c20.418,49.129,49.639,119.449,49.698,119.591h-6.869
		c-9.929,2.815-67.95-151.988-74.554-163.737c-7.161-18.386-2.084-34.592,8.475-45.177L323.001,270.793z M479.73,588.651
		c2.582,11.565,4.32,21.899,4.909,27.898c-18.765-25.266-46.222-67.143-41.898-84.202c2.18-3.2,4.359-4.935,6.517-5.497
		L479.73,588.651z M692.324,788.265l0.248,0.248l-0.248,0.602V788.265z M651.304,806.407V776.49l11.712-11.712v53.344h-35.564
		l5.128-11.715H651.304z M559.662,780.263c-19.791,29.041-39.592-60.72-41.898-84.196
		C536.528,721.335,563.985,763.213,559.662,780.263z M507.497,793.212c-29.532,18.775-13.178-71.078-6.295-93.836
		C508.804,729.918,518.044,779.136,507.497,793.212z M400.231,560.2c1.571-1.649,3.18-3.259,4.828-4.829
		c20.543-2.123,48.457,43.322,65.684,70.479C443.348,608.026,398.614,581.667,400.231,560.2z M461.586,639.412
		c-31.073-4.985-79.97-15.792-88.787-31.024C366.702,573.104,446.675,626.515,461.586,639.412z M275.971,270.915
		c11.778,11.211,21.205,27.573,27.595,44.788c-44.245-32.04-66.254-54.699-54.992-5.742c-9.166-10.395-18.852-17.455-28.6-21.84
		c-5.186-20.309-12.689-37.397-22.502-51.179C222.769,237.527,249.807,247.594,275.971,270.915z M279.137,375.072
		c36.474,36.479,89.991,89.996,90.102,90.107h-15.703c-0.038-0.031-65.87-65.875-97.038-97.04
		c-8.285-7.714-16.919-19.404-28.446-23.457c-0.233-4.422-0.523-8.77-0.895-13.001C249.959,336.198,252.448,352.818,279.137,375.072
		z M228.648,576.558c29.865,11.648,54.421,21.07,58.185,23.824l-5.122,5.122H268.19l0.065-0.158
		c-13.643-6.23-26.873-11.815-39.607-16.972V576.558z M228.648,614.471h44.098l-11.032,11.032
		c-11.217,0.52-22.263,0.701-33.066,0.696V614.471z M228.648,686.622c19.042-0.001,32.505-0.001,32.581-0.001l11.517,11.517h-44.098
		V686.622z M228.648,727.286l47.225-20.181h5.839l5.154,5.153v1.785l-58.217,24.771V727.286z M286.865,534.251
		c-15.435-6.393-36.741-15.218-58.217-24.112v-11.48c24.491,10.33,44.077,17.307,58.217,23.538V534.251z M286.865,501.122
		c-16.379-16.372-38.751-38.732-58.217-58.204v-16.187c18.482,18.48,41.4,41.397,58.217,58.214V501.122z M228.648,805.239
		c21.43-9.119,42.76-18.193,58.217-24.771v13.111c-13.114,6.667-30.597,12.397-58.217,24.401V805.239z M339.384,542.388v-47.901
		h53.345l-11.714,11.714h-29.917v29.917l-9.902,9.902L339.384,542.388z M458.132,656.305c-11.835,4.371-35.831,8.469-57.026,9.784
		l-10.384-20.812C414.09,645.38,437.167,651.935,458.132,656.305z M461.464,672.911c-12.001,8.934-27.749,19.826-42.809,28.347
		l-8.617-17.269C429.696,678.043,451.52,673.897,461.464,672.911z M470.747,686.759c-9.094,15.126-21.977,34.752-34.613,49.529
		l-9.682-19.403C440.606,705.664,457.756,694.902,470.747,686.759z M531.762,896.035l10.354-10.355
		c1.564,1.838,1.25,30.59,0.957,64.932l-11.311-22.669V896.035z M551.999,875.797l5.24-5.239
		c0.029,0.034,24.019,57.808,43.705,105.181h-11.791C570.411,932.642,550.273,884.654,551.999,875.797z M613.818,847.427h6.667
		c3.758-2.095,17.124,26.249,31.537,59.931l-6.971,15.228C628.985,883.927,613.86,847.529,613.818,847.427z M692.324,803.97v-13.762
		c5.358,2.224,2.822,1.233,4.727,2.785c1.096,1.096,2.816,2.816,5.021,5.022l-4.931,10.773
		C694.119,805.764,692.347,803.993,692.324,803.97z M692.324,775.587v-7.318c0.021,0.004,7.668,3.167,19.644,8.126l-4.653,10.164
		C700.473,783.07,695.442,779.608,692.324,775.587z M715.909,711.885l4.789-4.789v0.008c6.137-0.682,13.081,0.637,21.429,3.402
		l-4.708,10.285C724.385,715.395,715.955,711.905,715.909,711.885z M734.935,697.884l-0.105,0.254h-5.174l11.516-11.517h11.888
		l-5.292,11.561C739.935,698.136,735.135,698.045,734.935,697.884z M740.687,625.502l-11.032-11.032h56.431l-5.05,11.032H740.687z
		 M726.523,605.505h-5.833l-0.119-0.119l5.084-11.616c18.035-7.674,54.024-22.976,86.808-36.925l-7.06,15.425
		C766.597,588.429,730.167,603.039,726.523,605.505z M809.951,491.489c-15.12,6.433-32.199,13.698-48.571,20.664l6.68-15.262
		c12.445-5.066,26.286-10.863,41.654-17.926c18.591-10.384,34.184-16.393,47.158-19.139l-6.719,14.679
		C836.849,479.019,822.6,485.983,809.951,491.489z M886.698,431.18c-10.543,12.947-28.247,17.456-45.424,24.657
		c28.44-39.454,50.916-64.428,13.062-55.69c33.512-35.681,24.416-75.877-0.699-98.765l18.168-41.506
		C920.774,294.831,944.918,364.614,886.698,431.18z M870.239,686.622h29.936c16.852,0,30.56-13.709,30.56-30.56
		c0-16.851-13.708-30.56-30.56-30.56h-29.936v-11.032h33.316c54.272,2.887,54.098,75.045,6.461,83.17
		c-12.927,1.348-9.271,0.137-29.3,0.499c-3.25-0.018-6.778-0.03-10.477-0.039V686.622z M870.239,532.462
		c13.782-5.226,21.91-9.113,27.698-25.014c0.732-29.996-11.07-38.495-27.698-37.448v-9.944c0-0.687-0.122-1.348-0.325-1.974
		c48.348-2.269,49.502,49.931,32.939,67.438c0.073,2.715-13.266,9.82-32.614,18.738V532.462z M870.239,839.165
		c16.779-1.328,37.154-16.663,27.806-42.174c-10.583-16.401-16.406-18.056-27.806-21.524v-12.361
		c32.382,12.942,51.696,24.716,41.505,62.773c-11.006,20.68-25.319,26.465-41.505,24.951V839.165z M887.435,760.982
		c56.261-9.523,78.194-7.282,29.314-38.837c21.343,3.759,38.425,1.33,51.54-5.045v46.437c-10.597,3.279-22.308,5.444-35.239,6.198
		C919.577,770.207,901.099,765.664,887.435,760.982z M968.289,548.302V597.7c-15.715-8.899-36.688-11.322-62.398-2.411
		c55.591-35.333,48.51-34.328-13.253-44.746C921.714,541.994,947.036,542.142,968.289,548.302z M819.694,396.198
		c-7.532,9.442-4.37,4.69-11.687,12.464c-0.726,0.717-1.535,1.521-2.344,2.324l20.833-47.594
		C828.865,373.813,827.231,385.391,819.694,396.198z M862.243,924.023c1.861-4.587,3.452-9.258,4.731-14.025
		c14.126,0.503,12.554-6.545,3.265-20.509v-20.052c41.864,28.873,54.887,69.039,48.962,106.301h-44.5
		C878.158,958.684,874.962,940.236,862.243,924.023z M976.47,289.96c-8.978-24.506-23.791-47.016-42.424-65.701h75.934
		C994.525,240.044,983.343,262.008,976.47,289.96z M323.546,975.739c0.327-0.787,0.649-1.56,0.982-2.362
		c0.817,0.788,1.609,1.586,2.452,2.362H323.546z M968.289,484.518c-10.087-1.49-30.534-3.808-39.723-3.642
		c9.768-4.636,30.63-27.981,39.723-50.338V484.518z M928.582,832.438c14.222,1.424,33.593-1.059,39.706-2.798v52.585
		C963.991,873.492,940.321,841.313,928.582,832.438z M666.991,874.834c-15.168-15.177-29.199-27.313-29.199-27.313h16.183
		c0.033,0.018,8.196,6.954,18.13,16.143L666.991,874.834z M201.184,962.266c32.356,20.328,43.761-10.598,70.121-33.084
		c5.701-5.701,11.843-11.844,18.105-18.106c0.892,4.359,2.036,8.617,3.397,12.786l-46.531,46.531
		c-2.277,2.074-4.594,3.827-6.928,5.346h-54.628C189.189,973.434,196.391,967.971,201.184,962.266z"/>
	<path fill="#E97386" d="M1031.107,976.881c-33.637-23.325-49.987-53.29-49.987-91.611V367.477
		c0-72.773,16.819-121.344,49.987-144.363c2.306-1.599,3.303-4.509,2.466-7.188c-0.837-2.677-3.318-4.499-6.123-4.499h-144.25
		c-2.549,0-4.854,1.509-5.877,3.842L610.502,824.847L309.799,215.006c-1.08-2.19-3.311-3.579-5.754-3.579H169.484
		c-2.804,0-5.285,1.822-6.122,4.499c-0.837,2.677,0.16,5.589,2.464,7.188c33.174,23.031,49.992,71.603,49.992,144.363V885.27
		c0,38.309-16.352,68.274-49.99,91.614c-2.306,1.599-3.303,4.509-2.466,7.188c0.837,2.677,3.318,4.499,6.122,4.499h175.469
		c2.777,0,5.24-1.787,6.1-4.428c0.86-2.641-0.075-5.536-2.321-7.173c-32.996-24.051-49.035-54.047-49.035-91.699V491.59
		l246.202,493.429c1.088,2.175,3.311,3.551,5.742,3.551h73.201c2.509,0,4.789-1.464,5.834-3.747l226.732-495.336V892.4
		c-4.158,32.327-22.482,60.791-54.468,84.609c-2.218,1.652-3.128,4.539-2.258,7.163c0.87,2.626,3.323,4.398,6.09,4.398h220.679
		c2.804,0,5.286-1.822,6.123-4.501C1034.41,981.392,1033.413,978.48,1031.107,976.881z M1008.893,975.739H987.65
		c-0.472-0.346-0.94-0.701-1.387-1.082c0.239-3.401,0.391-6.819,0.44-10.256c1.597-2.511,3.121-5.058,4.671-7.592
		C996.402,963.499,1002.238,969.814,1008.893,975.739z M228.645,885.402c0-0.044,0.003-0.088,0.003-0.132v-15.574
		c19.441-19.441,41.828-41.828,58.217-58.217v15.705C270.031,844.018,247.115,866.932,228.645,885.402z M323.001,270.793
		c-15.668,20.334,6.023,43.546,16.086,74.795c20.418,49.129,49.639,119.449,49.698,119.591h-6.869
		c-9.929,2.815-67.95-151.988-74.554-163.737c-7.161-18.386-2.084-34.592,8.475-45.177L323.001,270.793z M479.73,588.651
		c2.582,11.565,4.32,21.899,4.909,27.898c-18.765-25.266-46.222-67.143-41.898-84.202c2.18-3.2,4.359-4.935,6.517-5.497
		L479.73,588.651z M702.272,647.192l5.161-11.791l20.904,20.904l-36.012,36.011v-16.951l19.06-19.06L702.272,647.192z
		 M692.324,788.265l0.248,0.248l-0.248,0.602V788.265z M651.304,806.407V776.49l11.712-11.712v53.344h-35.564l5.128-11.715H651.304z
		 M671.982,827.088v-71.275l11.377-11.377v94.025h-64.809l4.978-11.373H671.982z M519.899,749.806
		c5.046,17.256,11.686,32.907,20.169,40.446c-7.508,2.183-15.268,3.76-23.236,4.653
		C521.766,784.683,521.877,767.679,519.899,749.806z M517.764,696.066c18.763,25.269,46.22,67.147,41.898,84.196
		C539.871,809.304,520.07,719.543,517.764,696.066z M507.497,793.212c-29.532,18.775-13.178-71.078-6.295-93.836
		C508.804,729.918,518.044,779.136,507.497,793.212z M461.586,639.412c-31.073-4.985-79.97-15.792-88.787-31.024
		C366.702,573.104,446.675,626.515,461.586,639.412z M379.893,587.557c3.624-6.371,7.731-12.427,12.278-18.123
		c3.333,9.454,13.033,19.979,24.917,30.041C403.306,592.195,389.91,587.118,379.893,587.557z M400.231,560.2
		c1.571-1.649,3.18-3.259,4.828-4.829c20.543-2.123,48.457,43.322,65.684,70.479C443.348,608.026,398.614,581.667,400.231,560.2z
		 M446.964,575.311c-10.828-13.28-22.364-24.415-32.635-28.035c6.001-4.79,12.397-9.102,19.142-12.865
		C432.887,545.29,438.796,560.219,446.964,575.311z M354.82,438.083l-84.968-84.968c-9.654-25.19-13.32-48.278-14.646-59.884
		c11.365,6.114,34.727,20.156,56.728,42.361L354.82,438.083z M275.971,270.915c11.778,11.211,21.205,27.573,27.595,44.788
		c-44.245-32.04-66.254-54.699-54.992-5.742c-9.166-10.395-18.852-17.455-28.6-21.84c-5.186-20.309-12.689-37.397-22.502-51.179
		C222.769,237.527,249.807,247.594,275.971,270.915z M279.137,375.072c36.474,36.479,89.991,89.996,90.102,90.107h-15.703
		c-0.038-0.031-65.87-65.875-97.038-97.04c-8.285-7.714-16.919-19.404-28.446-23.457c-0.233-4.422-0.523-8.77-0.895-13.001
		C249.959,336.198,252.448,352.818,279.137,375.072z M228.648,455.59l56.52,56.52l-56.52-23.345V455.59z M228.648,576.558
		c29.865,11.648,54.421,21.07,58.185,23.824l-5.122,5.122H268.19l0.065-0.158c-13.643-6.23-26.873-11.815-39.607-16.972V576.558z
		 M228.648,614.471h44.098l-11.032,11.032c-11.217,0.52-22.263,0.701-33.066,0.696V614.471z M228.648,686.622
		c19.042-0.001,32.505-0.001,32.581-0.001l11.517,11.517h-44.098V686.622z M228.648,707.104h24.416l-24.416,10.434V707.104z
		 M228.648,727.286l47.225-20.181h5.839l5.154,5.153v1.785l-58.217,24.771V727.286z M286.865,669.104l-12.799-12.799l12.799-12.799
		V669.104z M286.865,534.251c-15.435-6.393-36.741-15.218-58.217-24.112v-11.48c24.491,10.33,44.077,17.307,58.217,23.538V534.251z
		 M286.865,501.122c-16.379-16.372-38.751-38.732-58.217-58.204v-16.187c18.482,18.48,41.4,41.397,58.217,58.214V501.122z
		 M228.648,828.023l50.634-21.638l-50.634,50.634V828.023z M228.648,817.98v-12.741c21.43-9.119,42.76-18.193,58.217-24.771v13.111
		C273.752,800.247,256.269,805.976,228.648,817.98z M319.043,474.145h94.028l-11.377,11.377h-71.276v38.898l-11.375-22.798V474.145z
		 M339.384,542.388v-47.901h53.345l-11.714,11.714h-29.917v29.917l-9.902,9.902L339.384,542.388z M412.558,638.193
		c-9.094-1.179-18.087-1.871-26.245-1.751l-5.009-10.04C390.04,631.047,401.07,634.961,412.558,638.193z M458.132,656.305
		c-11.835,4.371-35.831,8.469-57.026,9.784l-10.384-20.812C414.09,645.38,437.167,651.935,458.132,656.305z M461.464,672.911
		c-12.001,8.934-27.749,19.826-42.809,28.347l-8.617-17.269C429.696,678.043,451.52,673.897,461.464,672.911z M470.747,686.759
		c-9.094,15.126-21.977,34.752-34.613,49.529l-9.682-19.403C440.606,705.664,457.756,694.902,470.747,686.759z M484.76,696.11
		c-1.762,21.761-13.849,70.166-25.905,85.717l-11.768-23.584C454.958,738.689,471.789,713.917,484.76,696.11z M462.997,790.128
		c8.087-7.421,14.454-22.243,19.34-38.732c-1.797,17.289-1.553,33.591,3.234,43.509c-7.673-0.86-15.148-2.363-22.396-4.421
		L462.997,790.128z M501.201,866.488l19.061-19.061h16.951l-30.439,30.438l-5.78-11.583L501.201,866.488z M531.762,896.035
		l10.354-10.355c1.564,1.838,1.25,30.59,0.957,64.932l-11.311-22.669V896.035z M551.999,875.797l5.24-5.239
		c0.029,0.034,24.019,57.808,43.705,105.181h-11.791C570.411,932.642,550.273,884.654,551.999,875.797z M613.818,847.427h6.667
		c3.758-2.095,17.124,26.249,31.537,59.931l-6.971,15.228C628.985,883.927,613.86,847.529,613.818,847.427z M692.324,803.97v-13.762
		c5.358,2.224,2.822,1.233,4.727,2.785c1.096,1.096,2.816,2.816,5.021,5.022l-4.931,10.773
		C694.119,805.764,692.347,803.993,692.324,803.97z M692.324,775.587v-7.318c0.021,0.004,7.668,3.167,19.644,8.126l-4.653,10.164
		C700.473,783.07,695.442,779.608,692.324,775.587z M715.909,711.885l4.789-4.789v0.008c6.137-0.682,13.081,0.637,21.429,3.402
		l-4.708,10.285C724.385,715.395,715.955,711.905,715.909,711.885z M729.655,698.139l11.516-11.517h11.888l-5.292,11.561
		C739.935,698.136,729.655,698.139,729.655,698.139z M740.687,625.502l-11.032-11.032h56.431l-5.05,11.032H740.687z
		 M749.334,605.505l50.792-21.707l-9.936,21.707H749.334z M726.523,605.505h-5.833l-0.119-0.119l5.084-11.616
		c18.035-7.674,54.024-22.976,86.808-36.925l-7.06,15.425C766.597,588.429,730.167,603.039,726.523,605.505z M809.951,491.489
		c-15.12,6.433-32.199,13.698-48.571,20.664l6.68-15.262c12.445-5.066,26.286-10.863,41.654-17.926
		c18.591-10.384,34.184-16.393,47.158-19.139l-6.719,14.679C836.849,479.019,822.6,485.983,809.951,491.489z M886.698,431.18
		c-10.543,12.947-28.247,17.456-45.424,24.657c28.44-39.454,50.916-64.428,13.062-55.69c33.512-35.681,24.416-75.877-0.699-98.765
		l18.168-41.506C920.774,294.831,944.918,364.614,886.698,431.18z M870.239,707.592c28.879,11.755,50.774,27.854,60.765,35.968
		c-11.135,3.221-33.67,8.647-60.765,9.374V707.592z M880.716,698.139c-3.25-0.018-6.778-0.03-10.477-0.039v-11.479h29.936
		c16.852,0,30.56-13.709,30.56-30.56c0-16.851-13.708-30.56-30.56-30.56h-29.936v-11.032h33.316
		c54.272,2.887,54.098,75.045,6.461,83.17C897.088,698.988,900.744,697.777,880.716,698.139z M870.239,603.133v-45.235
		c26.87,0.628,49.263,5.921,60.339,9.064C920.669,575.094,898.996,591.222,870.239,603.133z M870.239,532.462
		c13.782-5.226,21.91-9.113,27.698-25.014c0.732-29.996-11.07-38.495-27.698-37.448v-9.944c0-0.687-0.122-1.348-0.325-1.974
		c48.348-2.269,49.502,49.931,32.939,67.438c0.073,2.715-13.266,9.82-32.614,18.738V532.462z M870.239,839.165
		c16.779-1.328,37.154-16.663,27.806-42.174c-10.583-16.401-16.406-18.056-27.806-21.524v-12.361
		c32.382,12.942,51.696,24.716,41.505,62.773c-11.006,20.68-25.319,26.465-41.505,24.951V839.165z M887.435,760.982
		c56.261-9.523,78.194-7.282,29.314-38.837c21.343,3.759,38.425,1.33,51.54-5.045v46.437c-10.597,3.279-22.308,5.444-35.239,6.198
		C919.577,770.207,901.099,765.664,887.435,760.982z M968.289,548.302V597.7c-15.715-8.899-36.688-11.322-62.398-2.411
		c55.591-35.333,48.51-34.328-13.253-44.746C921.714,541.994,947.036,542.142,968.289,548.302z M819.694,396.198
		c-7.532,9.442-4.37,4.69-11.687,12.464c-0.726,0.717-1.535,1.521-2.344,2.324l20.833-47.594
		C828.865,373.813,827.231,385.391,819.694,396.198z M808.199,421.147c23.162-8.496,43.766-11.884,54.497-13.176
		c-5.965,11.265-19.583,34.305-41.191,56.209l-48.129,20.568l22.402-51.18L808.199,421.147z M862.243,924.023
		c1.861-4.587,3.452-9.258,4.731-14.025c14.126,0.503,12.554-6.545,3.265-20.509v-20.052
		c41.864,28.873,54.887,69.039,48.962,106.301h-44.5C878.158,958.684,874.962,940.236,862.243,924.023z M976.47,289.96
		c-8.978-24.506-23.791-47.016-42.424-65.701h75.934C994.525,240.044,983.343,262.008,976.47,289.96z M551.999,968.501v-59.203
		l27.802,66.441h-24.19L551.999,968.501z M968.289,484.518c-10.087-1.49-30.534-3.808-39.723-3.642
		c9.768-4.636,30.63-27.981,39.723-50.338V484.518z M928.582,832.438c14.222,1.424,33.593-1.059,39.706-2.798v52.585
		C963.991,873.492,940.321,841.313,928.582,832.438z M593.791,818.796l9.117,19.666h-41.237L593.791,818.796z M666.991,874.834
		c-15.168-15.177-29.199-27.313-29.199-27.313h16.183c0.033,0.018,8.196,6.954,18.13,16.143L666.991,874.834z M642.054,862.174
		l21.11,20.613l-6.283,13.958L642.054,862.174z M228.648,595.281l26.395,10.223h-26.395V595.281z M327.023,975.739h-63.348
		c1.511-4.941,3.234-10.06,5.239-15.307l27.362-27.362C301.815,949.469,321.559,971.82,327.023,975.739z M201.184,962.266
		c32.356,20.328,43.761-10.598,70.121-33.084c5.701-5.701,11.843-11.844,18.105-18.106c0.892,4.359,2.036,8.617,3.397,12.786
		l-46.531,46.531c-2.277,2.074-4.594,3.827-6.928,5.346h-54.628C189.189,973.434,196.391,967.971,201.184,962.266z"/>
	<path fill="#D14970" d="M1031.107,976.881c-33.637-23.325-49.987-53.29-49.987-91.611V367.477
		c0-72.773,16.819-121.344,49.987-144.363c2.306-1.599,3.303-4.509,2.466-7.188c-0.837-2.677-3.318-4.499-6.123-4.499h-144.25
		c-2.549,0-4.854,1.509-5.877,3.842L610.502,824.847L309.799,215.006c-1.08-2.19-3.311-3.579-5.754-3.579H169.484
		c-2.804,0-5.285,1.822-6.122,4.499c-0.837,2.677,0.16,5.589,2.464,7.188c33.174,23.031,49.992,71.603,49.992,144.363V885.27
		c0,38.309-16.352,68.274-49.99,91.614c-2.306,1.599-3.303,4.509-2.466,7.188c0.837,2.677,3.318,4.499,6.122,4.499h175.469
		c2.777,0,5.24-1.787,6.1-4.428c0.86-2.641-0.075-5.536-2.321-7.173c-32.996-24.051-49.035-54.047-49.035-91.699V491.59
		l246.202,493.429c1.088,2.175,3.311,3.551,5.742,3.551h73.201c2.509,0,4.789-1.464,5.834-3.747l226.732-495.336V892.4
		c-4.158,32.327-22.482,60.791-54.468,84.609c-2.218,1.652-3.128,4.539-2.258,7.163c0.87,2.626,3.323,4.398,6.09,4.398h220.679
		c2.804,0,5.286-1.822,6.123-4.501C1034.41,981.392,1033.413,978.48,1031.107,976.881z M1008.893,975.739H987.65
		c-0.472-0.346-0.94-0.701-1.387-1.082c0.239-3.401,0.391-6.819,0.44-10.256c1.597-2.511,3.121-5.058,4.671-7.592
		C996.402,963.499,1002.238,969.814,1008.893,975.739z M831.419,969.385c4.423-4.421,8.485-8.968,12.176-13.639
		c4.836-0.634,7.49-5.551,7.355-10.218c2.595-3.975,4.95-8.028,7.047-12.164c10.127,13.69,11.913,28.64,8.174,42.375h-25.035
		C839.573,973.1,836.499,970.817,831.419,969.385z M666.991,874.834c-15.168-15.177-29.199-27.313-29.199-27.313h16.183
		c0.033,0.018,8.196,6.954,18.13,16.143L666.991,874.834z M538.721,803.048c4.515-1.155,8.94-2.531,13.283-4.081
		c-0.627,16.21,26.04,8.185,13.591-5.619c4.089-1.929,8.067-4.052,11.947-6.327l3.563,7.227
		C586.489,819.011,547.119,833.19,538.721,803.048z M447.088,758.243c7.871-19.554,24.701-44.326,37.673-62.133
		c-1.762,21.761-13.849,70.166-25.905,85.717L447.088,758.243z M355.94,575.568c4.493-0.591,9.592,0.316,15.086,3.442
		c-2.398,4.024-4.623,8.162-6.648,12.415c-0.335-0.363-0.674-0.678-1.012-0.975L355.94,575.568z M327.023,975.739h-63.348
		c1.511-4.941,3.234-10.06,5.239-15.307l27.362-27.362C301.815,949.469,321.559,971.82,327.023,975.739z M199.744,224.259h87.425
		l-20.141,23.595c-11.176-7.752-23.46-13.578-36.452-17.307L199.744,224.259z M479.73,588.651
		c2.582,11.565,4.32,21.899,4.909,27.898c-18.765-25.266-46.222-67.143-41.898-84.202c2.18-3.2,4.359-4.935,6.517-5.497
		L479.73,588.651z M516.831,663.893c-2.494,5.502-7.732,9.815-15.629,10.15c-23.643-1.133-22.575-34.52,0.001-35.477
		c1.185,0.057,2.289,0.217,3.351,0.427L516.831,663.893z M493.838,807.571c-6.731,14.725,20.917,17.483,14.727,0
		c4.728-0.227,9.392-0.694,13.999-1.348c3.97,31.068-41.74,34.672-43.102,3.992c0-1.351,0.123-2.685,0.366-3.994
		C484.437,806.875,489.106,807.344,493.838,807.571z M501.202,699.376c7.602,30.542,16.842,79.76,6.295,93.836
		C477.966,811.987,494.319,722.135,501.202,699.376z M516.833,794.905c4.933-10.222,5.045-27.226,3.066-45.099
		c5.046,17.256,11.686,32.907,20.169,40.446C532.56,792.436,524.8,794.013,516.833,794.905z M517.764,696.066
		c18.763,25.269,46.22,67.147,41.898,84.196C539.871,809.304,520.07,719.543,517.764,696.066z M389.1,554.569
		c-3.158,3.476-6.15,7.104-8.978,10.863c-26.325-20.644,8.99-57.355,30.191-30.195c-3.753,2.824-7.376,5.814-10.848,8.967
		C393.88,528.896,372.187,546.608,389.1,554.569z M417.088,599.475c-13.782-7.28-27.178-12.357-37.195-11.918
		c3.624-6.371,7.731-12.427,12.278-18.123C395.504,578.888,405.203,589.414,417.088,599.475z M461.586,639.412
		c-31.073-4.985-79.97-15.792-88.787-31.024C366.702,573.104,446.675,626.515,461.586,639.412z M400.231,560.2
		c1.571-1.649,3.18-3.259,4.828-4.829c20.543-2.123,48.457,43.322,65.684,70.479C443.348,608.026,398.614,581.667,400.231,560.2z
		 M446.964,575.311c-10.828-13.28-22.364-24.415-32.635-28.035c6.001-4.79,12.397-9.102,19.142-12.865
		C432.887,545.29,438.796,560.219,446.964,575.311z M436.807,519.261c-4.308,2.033-8.501,4.267-12.577,6.682
		c-8.068-13.969-1.083-26.135,9.261-31.068l5.188,10.521C433.916,507.278,430.788,512.586,436.807,519.261z M401.403,465.179
		c-60.266-143.082-79.882-180.987-68.213-178.513l85.659,178.513H401.403z M339.087,345.588
		c20.418,49.129,49.639,119.449,49.698,119.591h-6.869c-9.929,2.815-67.95-151.988-74.554-163.737
		c-7.161-18.386-2.084-34.592,8.475-45.177l7.164,14.528C307.332,291.128,329.023,314.339,339.087,345.588z M228.648,455.59
		l56.52,56.52l-56.52-23.345V455.59z M228.648,498.659c24.491,10.33,44.077,17.307,58.217,23.538v12.055
		c-15.435-6.393-36.741-15.218-58.217-24.112V498.659z M286.865,669.104l-12.799-12.799l12.799-12.799V669.104z M228.648,529.442
		c21.701,9.063,42.884,17.926,58.217,24.309v27.232c-13.383-5.541-35.067-14.518-58.217-24.101V529.442z M228.648,576.558
		c29.865,11.648,54.421,21.07,58.185,23.824l-5.122,5.122H268.19l0.065-0.158c-13.643-6.23-26.873-11.815-39.607-16.972V576.558z
		 M228.648,595.281l26.395,10.223h-26.395V595.281z M228.648,614.471h44.098l-11.032,11.032c-11.217,0.52-22.263,0.701-33.066,0.696
		V614.471z M228.648,643.434h20.434L236.5,656.305l12.583,12.386h-20.434V643.434z M228.648,686.622
		c19.042-0.001,32.505-0.001,32.581-0.001l11.517,11.517h-44.098V686.622z M228.648,707.104h24.416l-24.416,10.434V707.104z
		 M228.648,727.286l47.225-20.181h5.839l5.154,5.153v1.785l-58.217,24.771V727.286z M228.648,758.301
		c22.905-9.746,44.511-18.938,58.217-24.769v27.447c-15.371,6.54-36.611,15.577-58.217,24.771V758.301z M228.648,828.023
		l50.634-21.638l-50.634,50.634V828.023z M228.648,817.98v-12.741c21.43-9.119,42.76-18.193,58.217-24.771v13.111
		C273.752,800.247,256.269,805.976,228.648,817.98z M286.865,501.122c-16.379-16.372-38.751-38.732-58.217-58.204v-16.187
		c18.482,18.48,41.4,41.397,58.217,58.214V501.122z M227.155,331.68c22.804,4.517,25.292,21.138,51.981,43.392
		c36.474,36.479,89.991,89.996,90.102,90.107h-15.703c-0.038-0.031-65.87-65.875-97.038-97.04
		c-8.285-7.714-16.919-19.404-28.446-23.457C227.817,340.26,227.528,335.912,227.155,331.68z M255.206,293.231
		c11.365,6.114,34.727,20.156,56.728,42.361l42.886,102.491l-84.968-84.968C260.198,327.926,256.532,304.837,255.206,293.231z
		 M295.966,275.699c-5.21-6.798-11.095-13.529-19.438-20.562l24.563-28.774l10.585,21.468
		C304.034,254.865,298.125,264.369,295.966,275.699z M275.971,270.915c11.778,11.211,21.205,27.573,27.595,44.788
		c-44.245-32.04-66.254-54.699-54.992-5.742c-9.166-10.395-18.852-17.455-28.6-21.84c-5.186-20.309-12.689-37.397-22.502-51.179
		C222.769,237.527,249.807,247.594,275.971,270.915z M250.994,334.413c-7.193-6.601-15.831-10.696-24.846-12.39
		c-0.989-8.384-2.284-16.347-3.861-23.922C233.282,304.708,243.338,316.325,250.994,334.413z M228.648,885.27v-15.574
		c19.441-19.441,41.828-41.828,58.217-58.217v15.705c-16.835,16.834-39.751,39.748-58.22,58.217
		C228.645,885.357,228.648,885.314,228.648,885.27z M299.023,461.497c-1.333-2.664-4.318-4.057-7.213-3.381
		c-1.596,0.377-2.917,1.342-3.797,2.62c-17.793-17.792-42.504-42.501-59.365-59.365v-33.895c0-0.654-0.023-1.277-0.026-1.927
		c4.875,4.085,9.541,10.434,15.354,15.426c28.331,28.332,84.067,84.069,84.201,84.203h-18.099v17.622
		c-0.003-0.004-0.332-0.332-0.849-0.85L299.023,461.497z M319.043,474.145h94.028l-11.377,11.377h-71.276v38.898l-11.375-22.798
		V474.145z M339.384,542.388v-47.901h53.345l-11.714,11.714h-29.917v29.917l-9.902,9.902L339.384,542.388z M412.558,638.193
		c-9.094-1.179-18.087-1.871-26.245-1.751l-5.009-10.04C390.04,631.047,401.07,634.961,412.558,638.193z M458.132,656.305
		c-11.835,4.371-35.831,8.469-57.026,9.784l-10.384-20.812C414.09,645.38,437.167,651.935,458.132,656.305z M461.464,672.911
		c-12.001,8.934-27.749,19.826-42.809,28.347l-8.617-17.269C429.696,678.043,451.52,673.897,461.464,672.911z M470.747,686.759
		c-9.094,15.126-21.977,34.752-34.613,49.529l-9.682-19.403C440.606,705.664,457.756,694.902,470.747,686.759z M462.997,790.128
		c8.087-7.421,14.454-22.243,19.34-38.732c-1.797,17.289-1.553,33.591,3.234,43.509c-7.673-0.86-15.148-2.363-22.396-4.421
		L462.997,790.128z M501.201,866.488l19.061-19.061h16.951l-30.439,30.438l-5.78-11.583L501.201,866.488z M531.762,896.035
		l10.354-10.355c1.564,1.838,1.25,30.59,0.957,64.932l-11.311-22.669V896.035z M600.943,975.739h-11.791
		c-18.741-43.097-38.879-91.085-37.153-99.942l5.24-5.239C557.268,870.592,581.257,928.366,600.943,975.739z M593.791,818.796
		l9.117,19.666h-41.237L593.791,818.796z M702.272,647.192l5.161-11.791l20.904,20.904l-36.012,36.011v-16.951l19.06-19.06
		L702.272,647.192z M692.324,788.265l0.248,0.248l-0.248,0.602V788.265z M651.304,806.407V776.49l11.712-11.712v53.344h-35.564
		l5.128-11.715H651.304z M671.982,827.088v-71.275l11.377-11.377v94.025h-64.809l4.978-11.373H671.982z M620.485,847.427
		c3.758-2.095,17.124,26.249,31.537,59.931l-6.971,15.228c-16.066-38.659-31.191-75.057-31.233-75.159H620.485z M642.054,862.174
		l21.11,20.613l-6.283,13.958L642.054,862.174z M692.324,803.97v-13.762c5.358,2.224,2.822,1.233,4.727,2.785
		c1.096,1.096,2.816,2.816,5.021,5.022l-4.931,10.773C694.119,805.764,692.347,803.993,692.324,803.97z M692.324,775.587v-7.318
		c0.021,0.004,7.668,3.167,19.644,8.126l-4.653,10.164C700.473,783.07,695.442,779.608,692.324,775.587z M692.324,748.863V735.47
		l9.861-9.861c0.012,0.008,11.165,4.626,27.766,11.499l-10.518,22.979C703.207,753.369,692.35,748.873,692.324,748.863z
		 M715.909,711.885l4.789-4.789v0.008c6.137-0.682,13.081,0.637,21.429,3.402l-4.708,10.285
		C724.385,715.395,715.955,711.905,715.909,711.885z M729.655,698.139l11.516-11.517h11.888l-5.292,11.561
		C739.935,698.136,729.655,698.139,729.655,698.139z M748.595,639.653l26.822-0.993l-7.05,14.523L748.595,639.653z M740.687,625.502
		l-11.032-11.032h56.431l-5.05,11.032H740.687z M749.334,605.505l50.792-21.707l-9.936,21.707H749.334z M726.523,605.505h-5.833
		l-0.119-0.119l5.084-11.616c18.035-7.674,54.024-22.976,86.808-36.925l-7.06,15.425
		C766.597,588.429,730.167,603.039,726.523,605.505z M736.132,569.833l14.764-33.729c30.211-12.856,65.369-27.816,88.25-37.551
		l-15.603,34.088C795.602,544.529,761.433,559.068,736.132,569.833z M809.951,491.489c-15.12,6.433-32.199,13.698-48.571,20.664
		l6.68-15.262c12.445-5.066,26.286-10.863,41.654-17.926c18.591-10.384,34.184-16.393,47.158-19.139l-6.719,14.679
		C836.849,479.019,822.6,485.983,809.951,491.489z M836.134,341.37c5.787-3.182,6.957-8.154,5.587-12.765l7.818-17.861
		c23.8,24.65,29.351,66.824-17.676,93.703l0.048,0.106c-3.145,0.777-6.412,1.649-9.798,2.628
		c8.939-9.194,13.67-20.949,14.253-32.886c20.698,9.247,18.455-27.462-1.418-14.705c-0.729-2.961-1.736-5.862-2.989-8.679
		L836.134,341.37z M914.143,780.12c9.05,1.289,18.688,1.975,30.292,0.922l3.145,39.849c-4.792,0.42-9.63,0.675-14.53,0.675
		c-3.503,0-7.01-0.148-10.495-0.366C925.873,806.685,922.551,791.751,914.143,780.12z M933.05,769.734
		c-13.474,0.472-31.951-4.07-45.615-8.753c56.261-9.523,78.194-7.282,29.314-38.837c21.343,3.759,38.425,1.33,51.54-5.045v46.437
		C957.692,766.815,945.98,768.981,933.05,769.734z M870.239,794.533c7.434,3.813,24.249,19.754,0,26.174V794.533z M870.239,488.006
		c8.615,2.258,18.107,10.501,3.032,23.478c0.004-0.002-1.085,0.461-3.032,1.289V488.006z M921.491,491.48
		c6.852-0.499,16.511-0.663,26.153,0.241l-3.029,39.861c-10.199-1.054-24.464-0.558-37.143,2.133
		C918.288,522.637,923.556,507.019,921.491,491.48z M968.289,548.302V597.7c-15.715-8.899-36.688-11.322-62.398-2.411
		c55.591-35.333,48.51-34.328-13.253-44.746C921.714,541.994,947.036,542.142,968.289,548.302z M947.004,682.491
		c3.355-5.545,5.667-11.768,6.695-18.426c6.206,3.908,11.049,4.492,14.591,3.183v40.131c-14.463,9.974-35.195,12.246-61.639-0.432
		c11.885-0.721,22.658-5.528,30.959-13.056C945.952,715.41,969.895,687.216,947.004,682.491z M968.289,642.083
		c-3.651-1.364-8.655-0.635-15.007,3.843c-1.185-5.683-3.364-10.991-6.279-15.807c22.651-4.177-0.434-33.055-9.394-11.4
		c-8.6-7.8-19.851-12.682-32.243-13.122c27.839-9.906,48.638-7.361,62.923,1.839V642.083z M959.52,493.188
		c2.953,0.477,5.871,1.058,8.768,1.692v41.264c-3.866-1.142-7.799-2.125-11.813-2.888L959.52,493.188z M930.578,566.962
		c-9.909,8.132-31.582,24.26-60.339,36.171v-45.235C897.109,558.526,919.502,563.82,930.578,566.962z M870.239,643.434h29.936
		c6.963,0,12.628,5.665,12.628,12.628c0,6.963-5.665,12.628-12.628,12.628h-29.936V643.434z M870.239,686.622h29.936
		c16.852,0,30.56-13.709,30.56-30.56c0-16.851-13.708-30.56-30.56-30.56h-29.936v-11.032h33.316
		c54.272,2.887,54.098,75.045,6.461,83.17c-12.927,1.348-9.271,0.137-29.3,0.499c-3.25-0.018-6.778-0.03-10.477-0.039V686.622z
		 M870.239,707.592c28.879,11.755,50.774,27.854,60.765,35.968c-11.135,3.221-33.67,8.647-60.765,9.374V707.592z M968.289,776.475
		v41.256c-2.918,0.637-5.857,1.219-8.831,1.699l-3.161-40.045C960.37,778.617,964.364,777.629,968.289,776.475z M968.289,484.518
		c-10.087-1.49-30.534-3.808-39.723-3.642c9.768-4.636,30.63-27.981,39.723-50.338V484.518z M940.11,448.311l-30.557-26.088
		c7.661-11.059,13.373-23.07,17.067-35.564l39.815,6.285C961.242,412.854,952.358,431.587,940.11,448.311z M932.681,457.688
		c-4.429,5.175-9.545,10.756-16.542,16.923c-6.252-11.575-17.496-21.793-31.904-25.48c5.517-4.273,11.727-9.917,18.037-17.403
		L932.681,457.688z M902.853,525.519c0.073,2.715-13.266,9.82-32.614,18.738v-11.796c13.782-5.226,21.91-9.113,27.698-25.014
		c0.732-29.996-11.07-38.495-27.698-37.448v-9.944c0-0.687-0.122-1.348-0.325-1.974
		C918.262,455.813,919.417,508.013,902.853,525.519z M870.239,839.165c16.779-1.328,37.154-16.663,27.806-42.174
		c-10.583-16.401-16.406-18.056-27.806-21.524v-12.361c32.382,12.942,51.696,24.716,41.505,62.773
		c-11.006,20.68-25.319,26.465-41.505,24.951V839.165z M915.663,837.582c5.366,4.693,11.905,11.112,18.24,18.75l-30.413,25.964
		c-5.382-6.647-14.22-15.451-23.516-22.098C891.96,858.984,908.34,849.867,915.663,837.582z M941.192,865.83
		c12.155,17,20.909,36.004,25.857,56.19l-39.792,6.283c-3.501-12.752-9.035-25.052-16.631-36.38L941.192,865.83z M928.582,832.438
		c14.222,1.424,33.593-1.059,39.706-2.798v52.585C963.991,873.492,940.321,841.313,928.582,832.438z M968.289,367.477v13.658
		l-38.822-6.129c3.247-16.715,3.044-33.962-0.544-50.621l38.554-11.179c1.133,4.871,1.989,9.822,2.687,14.81
		C968.939,340.355,968.289,353.478,968.289,367.477z M925.851,312.831c-5.306-16.705-14.169-32.511-26.637-46.199l28.273-28.282
		c17.104,18.341,29.6,39.909,36.878,63.312L925.851,312.831z M886.698,431.18c-10.543,12.947-28.247,17.456-45.424,24.657
		c28.44-39.454,50.916-64.428,13.062-55.69c33.512-35.681,24.416-75.877-0.699-98.765l18.168-41.506
		C920.774,294.831,944.918,364.614,886.698,431.18z M819.694,396.198c-7.532,9.442-4.37,4.69-11.687,12.464
		c-0.726,0.717-1.535,1.521-2.344,2.324l20.833-47.594C828.865,373.813,827.231,385.391,819.694,396.198z M808.199,421.147
		c23.162-8.496,43.766-11.884,54.497-13.176c-5.965,11.265-19.583,34.305-41.191,56.209l-48.129,20.568l22.402-51.18
		L808.199,421.147z M862.243,924.023c1.861-4.587,3.452-9.258,4.731-14.025c14.126,0.503,12.554-6.545,3.265-20.509v-20.052
		c41.864,28.873,54.887,69.039,48.962,106.301h-44.5C878.158,958.684,874.962,940.236,862.243,924.023z M929.875,939.992
		l39.567-6.248c2.27,12.861,2.885,27.445,1.69,41.995h-40.211C932.259,963.846,931.934,951.803,929.875,939.992z M976.47,289.96
		c-8.978-24.506-23.791-47.016-42.424-65.701h75.934C994.525,240.044,983.343,262.008,976.47,289.96z M887.396,224.259h25.191
		c2.18,1.824,4.336,3.69,6.44,5.646l-28.268,28.278c-4.314-3.92-8.852-7.451-13.552-10.647L887.396,224.259z M225.471,913.933
		c16.374-16.374,42.477-42.476,61.394-61.394v32.732c0,0.982,0.049,1.944,0.07,2.918c-22.66,22.666-47.912,47.923-56.188,56.192
		c0.128,2.44-12.516,9.254-19.456,4.002C217.912,937.75,222.644,926.257,225.471,913.933z M201.184,962.266
		c32.356,20.328,43.761-10.598,70.121-33.084c5.701-5.701,11.843-11.844,18.105-18.106c0.892,4.359,2.036,8.617,3.397,12.786
		l-46.531,46.531c-2.277,2.074-4.594,3.827-6.928,5.346h-54.628C189.189,973.434,196.391,967.971,201.184,962.266z M551.999,968.501
		v-59.203l27.802,66.441h-24.19L551.999,968.501z M620.722,975.739h-0.356c-21.035-50.619-49.369-118.802-49.409-118.899
		l9.412-9.412h14.03c0.013,0.035,21.164,50.93,40.474,97.398L620.722,975.739z"/>
</g>
</svg>
